<svg width="104" height="31" viewBox="0 0 104 31" fill="none" xmlns="http://www.w3.org/2000/svg">
<path fill-rule="evenodd" clip-rule="evenodd" d="M102.629 29.3983C101.165 29.6243 99.3805 30.0314 93.9361 30.0314C87.9886 30.0314 83.3683 28.4485 83.3683 20.763L83.3704 11.2501C83.3704 3.56417 87.9911 1.98212 93.9387 1.98212C99.383 1.98212 101.167 2.38885 102.631 2.61485C103.317 2.70543 103.546 2.93143 103.546 3.56417V6.45783C103.546 6.95513 103.134 7.36186 102.631 7.36186H93.2984C90.6448 7.36186 89.6837 8.26631 89.6837 11.2501V13.0578H102.082C102.585 13.0578 102.997 13.4649 102.997 13.9622V17.2173C102.997 17.7146 102.585 18.1213 102.082 18.1213H89.6837L89.6816 20.763C89.6816 23.7468 90.6422 24.6513 93.2959 24.6513H102.629C103.132 24.6513 103.543 25.058 103.543 25.5553V28.4485C103.543 29.0817 103.315 29.3077 102.629 29.3983Z" fill="#1D1D1B"/>
<path fill-rule="evenodd" clip-rule="evenodd" d="M76.43 2.90625H75.8877C75.4365 2.90625 75.1199 3.32292 75.0296 3.78626L70.9343 27.7171C70.8887 27.9021 70.6627 28.0875 70.618 28.0875C70.6102 28.0875 70.6056 28.0837 70.5986 28.0828V28.082C70.5853 28.0811 70.5766 28.0744 70.5646 28.0722C70.433 28.0438 70.3862 27.9246 70.3469 27.7621L62.9716 4.34168C62.7005 3.55459 62.1131 2.90625 60.9392 2.90625C60.8792 2.90625 60.8179 2.9088 60.7562 2.91346V2.90625C60.7277 2.90837 60.6987 2.91261 60.6706 2.91558V2.90625C59.7728 3.00384 58.7417 3.60381 58.4544 5.15889L54.2911 29.1512V29.3367C54.2911 29.7067 54.5167 30.0308 54.9228 30.0308H55.3748C55.8268 30.0308 56.1882 29.6142 56.2784 29.1512L60.4421 5.15889C60.4806 4.96116 60.5845 4.86909 60.6706 4.84533V4.85466C60.685 4.85084 60.7 4.84405 60.7132 4.84405C60.7277 4.84405 60.7422 4.85042 60.7562 4.85169V4.8589C60.9214 4.87885 61.0783 5.00486 61.1197 5.17544L68.4946 28.5496C68.8551 29.7041 69.4408 30.0296 70.5646 30.0308C70.5679 30.0308 70.57 30.0312 70.5729 30.0312C70.5812 30.0312 70.5899 30.03 70.5986 30.03V30.0312C71.717 30.0181 72.698 29.1873 72.9671 27.7171L77.0624 3.78626V3.60084C77.0624 3.23084 76.8815 2.90625 76.43 2.90625Z" fill="#1D1D1B"/>
<path fill-rule="evenodd" clip-rule="evenodd" d="M48.3508 3.78585L43.5746 29.1512C43.4768 29.6146 43.0852 30.0312 42.5953 30.0312H42.1059C41.6653 30.0312 41.4204 29.7071 41.4204 29.3367V29.1512L46.1966 3.78585C46.2949 3.32292 46.6861 2.90625 47.1759 2.90625H47.6653C48.1063 2.90625 48.3508 3.23042 48.3508 3.60085V3.78585Z" fill="#1D1D1B"/>
<path fill-rule="evenodd" clip-rule="evenodd" d="M37.4602 3.68401L33.6743 26.3253C33.2573 29.2077 31.9133 30.0312 29.5032 30.0312H27.0008C24.9152 30.0312 23.8033 29.0248 23.1542 26.3711L19.493 14.9898C19.4001 14.5778 19.4001 14.4862 19.2149 14.4862C19.0296 14.4862 18.9836 14.5778 18.8908 14.9898L15.2291 26.3711C14.5805 29.0248 13.4685 30.0312 11.3825 30.0312H8.88052C6.47005 30.0312 5.12597 29.2077 4.70904 26.3253L0.828125 3.68401V3.54696C0.828125 3.13495 1.19907 2.90625 1.616 2.90625H6.5285C6.89901 2.90625 7.26996 3.22661 7.31595 3.72984L10.1777 23.8091C10.2242 24.2207 10.2242 24.4953 10.4094 24.4953C10.5947 24.4953 10.5947 24.2207 10.6875 23.8091L14.6729 11.4667C14.9514 10.3691 15.6 9.40841 17.5927 9.40841H20.791C22.7833 9.40841 23.4319 10.3691 23.7104 11.4667L27.6958 23.8091C27.7886 24.2207 27.7886 24.4953 27.9743 24.4953C28.1592 24.4953 28.1592 24.2207 28.206 23.8091L30.9715 3.72984C31.0188 3.22661 31.3893 2.90625 31.7594 2.90625H36.6723C37.0897 2.90625 37.4602 3.13495 37.4602 3.54696V3.68401Z" fill="#1D1D1B"/>
</svg>
